<svg width="51" height="41" viewBox="0 0 51 41" fill="none" xmlns="http://www.w3.org/2000/svg">
<path id="Vector" d="M15.3 32.8C12.495 32.8 10.2255 34.645 10.2255 36.9C10.2255 39.155 12.495 41 15.3 41C18.105 41 20.4 39.155 20.4 36.9C20.4 34.645 18.105 32.8 15.3 32.8ZM0 0V4.1H5.1L14.28 19.6595L10.8375 24.682C10.4295 25.256 10.2 25.9325 10.2 26.65C10.2 28.905 12.495 30.75 15.3 30.75H45.9V26.65H16.371C16.014 26.65 15.7335 26.4245 15.7335 26.1375L15.81 25.8915L18.105 22.55H37.1025C39.015 22.55 40.698 21.7095 41.565 20.4385L50.694 7.134C50.898 6.847 51 6.4985 51 6.15C51 5.0225 49.8525 4.1 48.45 4.1H10.7355L8.3385 0H0ZM40.8 32.8C37.995 32.8 35.7255 34.645 35.7255 36.9C35.7255 39.155 37.995 41 40.8 41C43.605 41 45.9 39.155 45.9 36.9C45.9 34.645 43.605 32.8 40.8 32.8Z" fill="white"/>
</svg>
