<svg width="22" height="22" viewBox="0 0 22 22" fill="none" xmlns="http://www.w3.org/2000/svg">
<g clip-path="url(#clip0_647_38)">
<path d="M17.5448 11.8617C17.5814 11.5867 17.5998 11.3025 17.5998 11C17.5998 10.7067 17.5814 10.4133 17.5356 10.1383L19.3964 8.69001C19.5614 8.56168 19.6073 8.31418 19.5064 8.13085L17.7464 5.08751C17.6364 4.88585 17.4073 4.82168 17.2056 4.88585L15.0148 5.76585C14.5564 5.41751 14.0706 5.12418 13.5298 4.90418L13.1998 2.57585C13.1631 2.35585 12.9798 2.20001 12.7598 2.20001H9.23978C9.01977 2.20001 8.84561 2.35585 8.80894 2.57585L8.47894 4.90418C7.93811 5.12418 7.44311 5.42668 6.99394 5.76585L4.80311 4.88585C4.60144 4.81251 4.37228 4.88585 4.26228 5.08751L2.51144 8.13085C2.40144 8.32335 2.43811 8.56168 2.62144 8.69001L4.48228 10.1383C4.43644 10.4133 4.39978 10.7158 4.39978 11C4.39978 11.2842 4.41811 11.5867 4.46394 11.8617L2.60311 13.31C2.43811 13.4383 2.39228 13.6858 2.49311 13.8692L4.25311 16.9125C4.36311 17.1142 4.59228 17.1783 4.79394 17.1142L6.98478 16.2342C7.44311 16.5825 7.92894 16.8758 8.46977 17.0958L8.79978 19.4242C8.84561 19.6442 9.01977 19.8 9.23978 19.8H12.7598C12.9798 19.8 13.1631 19.6442 13.1906 19.4242L13.5206 17.0958C14.0614 16.8758 14.5564 16.5825 15.0056 16.2342L17.1964 17.1142C17.3981 17.1875 17.6273 17.1142 17.7373 16.9125L19.4973 13.8692C19.6073 13.6675 19.5614 13.4383 19.3873 13.31L17.5448 11.8617ZM10.9998 14.3C9.18478 14.3 7.69977 12.815 7.69977 11C7.69977 9.18501 9.18478 7.70001 10.9998 7.70001C12.8148 7.70001 14.2998 9.18501 14.2998 11C14.2998 12.815 12.8148 14.3 10.9998 14.3Z" fill="#D92E3E"/>
</g>
<defs>
<clipPath id="clip0_647_38">
<rect width="22" height="22" fill="white"/>
</clipPath>
</defs>
</svg>
